<svg width="607" height="429" viewBox="0 0 607 429" fill="none" xmlns="http://www.w3.org/2000/svg">
<path d="M41.8176 285.854C95.9428 315.397 163.997 302.075 203.01 254.296C207.328 249.009 214.963 247.889 220.626 251.7L243.731 267.243C250.138 271.555 251.485 280.401 246.693 286.463C234.475 301.915 219.974 315.166 203.444 325.96C183.639 338.893 161.786 347.764 138.486 352.326C115.186 356.889 91.6032 356.913 68.3927 352.401C49.0156 348.633 30.5969 341.834 13.462 332.126C6.74326 328.318 4.65915 319.615 8.96992 313.204L24.5194 290.092C28.3321 284.427 35.8304 282.584 41.8176 285.854Z" fill="#FAF8F5"/>
<path d="M210.151 180.77C195.181 120.95 139.25 79.9518 77.678 83.657C70.8634 84.0665 64.864 79.2092 63.8279 72.4652L59.5914 44.9434C58.4148 37.3082 64.0086 30.3234 71.7147 29.7373C91.3554 28.244 110.928 29.926 130.071 34.7592C153.004 40.5517 174.339 50.6075 193.486 64.6414C212.633 78.6753 228.639 95.9969 241.06 116.12C251.428 132.92 258.91 151.073 263.391 170.249C265.15 177.772 260.162 185.202 252.525 186.378L224.989 190.613C218.243 191.653 211.806 187.39 210.151 180.77Z" fill="#FAF8F5"/>
<path d="M378.427 136.663C439.437 127.562 485.678 75.8867 487.951 14.2676C488.204 7.44732 493.621 1.95178 500.435 1.57043L528.248 0.0209164C535.962 -0.408611 542.379 5.83358 542.214 13.553C541.797 33.239 538.231 52.5477 531.561 71.1257C523.574 93.3808 511.494 113.637 495.665 131.328C479.835 149.019 461.037 163.265 439.799 173.674C422.069 182.361 403.268 188.049 383.744 190.651C376.086 191.67 369.167 185.99 368.737 178.279L367.187 150.476C366.814 143.664 371.677 137.67 378.427 136.663Z" fill="#FAF8F5"/>
<path d="M418.305 256.975C449.746 310.02 515.058 333.329 573.003 312.181C579.415 309.841 586.552 312.779 589.473 318.948L601.397 344.112C604.702 351.092 601.342 359.384 594.126 362.148C575.729 369.191 556.494 373.177 536.769 374.012C513.137 375.014 489.819 371.478 467.458 363.499C445.096 355.52 424.81 343.494 407.16 327.76C392.426 314.623 380.065 299.369 370.292 282.271C366.461 275.566 369.115 267.019 376.096 263.709L401.269 251.782C407.441 248.86 414.829 251.105 418.305 256.975Z" fill="#FAF8F5"/>
</svg>
