<svg width="486" height="755" viewBox="0 0 486 755" fill="none" xmlns="http://www.w3.org/2000/svg">
<path fill-rule="evenodd" clip-rule="evenodd" d="M443 149.339C468.53 136.247 486 109.664 486 79C486 35.3695 450.63 0 407 0C380.485 0 357.02 13.0631 342.691 33.1047C337.863 31.7338 332.767 31 327.5 31C308.219 31 291.235 40.8316 281.287 55.755C273.984 47.9081 263.565 43 252 43C236.366 43 222.826 51.9696 216.247 65.0435C205.307 58.6584 192.581 55 179 55C154.225 55 132.294 67.175 118.863 85.8683C114.449 84.6505 109.801 84 105 84C96.8397 84 89.1184 85.8797 82.2455 89.2297C74.671 75.9515 60.3808 67 44 67C19.6995 67 0 86.6995 0 111C0 130.033 12.0849 146.244 29 152.377V755H443V149.339ZM278.458 113H278.723C278.694 112.947 278.666 112.894 278.637 112.841C278.578 112.894 278.518 112.947 278.458 113Z" fill="url(#paint0_linear_1_1609)"/>
<defs>
<linearGradient id="paint0_linear_1_1609" x1="236" y1="32" x2="236" y2="545.5" gradientUnits="userSpaceOnUse">
<stop stop-color="#FAF8F5"/>
<stop offset="1" stop-color="white" stop-opacity="0"/>
</linearGradient>
</defs>
</svg>
